<svg version="1.1" viewBox="0.0 0.0 600.0 371.0" fill="none" stroke="none" stroke-linecap="square" stroke-miterlimit="10" width="600" height="371" xmlns:xlink="http://www.w3.org/1999/xlink" xmlns="http://www.w3.org/2000/svg"><path fill="#ffffff" d="M0 0L600.0 0L600.0 371.0L0 371.0L0 0Z" fill-rule="nonzero"/><path stroke="#333333" stroke-width="1.0" stroke-linecap="butt" d="M88.5 44.5L88.5 300.5" fill-rule="nonzero"/><path stroke="#cccccc" stroke-width="1.0" stroke-linecap="butt" d="M187.5 44.5L187.5 300.5" fill-rule="nonzero"/><path stroke="#cccccc" stroke-width="1.0" stroke-linecap="butt" d="M285.5 44.5L285.5 300.5" fill-rule="nonzero"/><path stroke="#cccccc" stroke-width="1.0" stroke-linecap="butt" d="M384.5 44.5L384.5 300.5" fill-rule="nonzero"/><path stroke="#cccccc" stroke-width="1.0" stroke-linecap="butt" d="M482.5 44.5L482.5 300.5" fill-rule="nonzero"/><path stroke="#cccccc" stroke-width="1.0" stroke-linecap="butt" d="M581.5 44.5L581.5 300.5" fill-rule="nonzero"/><clipPath id="id_0"><path d="M88.55 44.916668L581.45 44.916668L581.45 300.45L88.55 300.45L88.55 44.916668Z" clip-rule="nonzero"/></clipPath><path stroke="#000000" stroke-width="2.0" stroke-linecap="butt" stroke-opacity="0.0" clip-path="url(#id_0)" d="M89.0 154.0L89.0 83.0L89.0 83.0L89.0 154.0Z" fill-rule="nonzero"/><path fill="#4285f4" clip-path="url(#id_0)" d="M89.0 154.0L89.0 83.0L89.0 83.0L89.0 154.0Z" fill-rule="nonzero"/><path stroke="#000000" stroke-width="2.0" stroke-linecap="butt" stroke-opacity="0.0" clip-path="url(#id_0)" d="M89.0 263.0L89.0 192.0L122.0 192.0L122.0 263.0Z" fill-rule="nonzero"/><path fill="#4285f4" clip-path="url(#id_0)" d="M89.0 263.0L89.0 192.0L122.0 192.0L122.0 263.0Z" fill-rule="nonzero"/><path stroke="#000000" stroke-width="2.0" stroke-linecap="butt" stroke-opacity="0.0" clip-path="url(#id_0)" d="M89.0 154.0L89.0 83.0L487.0 83.0C488.10458 83.0 489.0 83.89543 489.0 85.0L489.0 152.0C489.0 153.10457 488.10458 154.0 487.0 154.0Z" fill-rule="nonzero"/><path fill="#ea4335" clip-path="url(#id_0)" d="M89.0 154.0L89.0 83.0L487.0 83.0C488.10458 83.0 489.0 83.89543 489.0 85.0L489.0 152.0C489.0 153.10457 488.10458 154.0 487.0 154.0Z" fill-rule="nonzero"/><path stroke="#000000" stroke-width="2.0" stroke-linecap="butt" stroke-opacity="0.0" clip-path="url(#id_0)" d="M122.0 263.0L122.0 192.0L185.0 192.0C186.10457 192.0 187.0 192.89543 187.0 194.0L187.0 261.0C187.0 262.10458 186.10457 263.0 185.0 263.0Z" fill-rule="nonzero"/><path fill="#ea4335" clip-path="url(#id_0)" d="M122.0 263.0L122.0 192.0L185.0 192.0C186.10457 192.0 187.0 192.89543 187.0 194.0L187.0 261.0C187.0 262.10458 186.10457 263.0 185.0 263.0Z" fill-rule="nonzero"/><path fill="#000000" d="M324.10938 349.45L324.10938 341.8719L321.28125 341.8719L321.28125 340.85626L328.09375 340.85626L328.09375 341.8719L325.25 341.8719L325.25 349.45L324.10938 349.45ZM328.79688 342.075L328.79688 340.85626L329.85938 340.85626L329.85938 342.075L328.79688 342.075ZM328.79688 349.45L328.79688 343.23126L329.85938 343.23126L329.85938 349.45L328.79688 349.45ZM331.79688 349.45L331.79688 343.23126L332.73438 343.23126L332.73438 344.10626Q333.03125 343.6375 333.51562 343.3719Q334.0 343.09064 334.625 343.09064Q335.3125 343.09064 335.75 343.3719Q336.20312 343.65314 336.375 344.16876Q337.125 343.09064 338.29688 343.09064Q339.23438 343.09064 339.71875 343.60626Q340.21875 344.10626 340.21875 345.1844L340.21875 349.45L339.17188 349.45L339.17188 345.52814Q339.17188 344.90314 339.0625 344.6219Q338.96875 344.34064 338.70312 344.16876Q338.4375 343.9969 338.0625 343.9969Q337.40625 343.9969 336.96875 344.4344Q336.54688 344.8719 336.54688 345.84064L336.54688 349.45L335.48438 349.45L335.48438 345.40314Q335.48438 344.7 335.21875 344.35626Q334.96875 343.9969 334.39062 343.9969Q333.9375 343.9969 333.5625 344.23126Q333.1875 344.46564 333.01562 344.91876Q332.84375 345.3719 332.84375 346.21564L332.84375 349.45L331.79688 349.45ZM347.04688 347.45L348.14062 347.575Q347.89062 348.52814 347.1875 349.0594Q346.48438 349.59064 345.40625 349.59064Q344.04688 349.59064 343.23438 348.7469Q342.4375 347.90314 342.4375 346.3875Q342.4375 344.825 343.25 343.96564Q344.0625 343.09064 345.34375 343.09064Q346.59375 343.09064 347.375 343.9344Q348.17188 344.77814 348.17188 346.325Q348.17188 346.41876 348.17188 346.60626L343.53125 346.60626Q343.59375 347.6375 344.10938 348.1844Q344.625 348.71564 345.40625 348.71564Q345.98438 348.71564 346.39062 348.41876Q346.8125 348.10626 347.04688 347.45ZM343.59375 345.7469L347.0625 345.7469Q347.0 344.95 346.67188 344.5594Q346.15625 343.95 345.35938 343.95Q344.625 343.95 344.125 344.4344Q343.64062 344.91876 343.59375 345.7469Z" fill-rule="nonzero"/><path fill="#000000" d="M19.471874 122.31454L19.471874 113.72079L22.440624 113.72079Q23.440624 113.72079 23.971874 113.84579Q24.70625 114.01766 25.221874 114.45516Q25.909374 115.03329 26.2375 115.93954Q26.58125 116.83016 26.58125 117.97079Q26.58125 118.95516 26.346874 119.70516Q26.128124 120.45516 25.76875 120.95516Q25.409374 121.45516 24.971874 121.73641Q24.55 122.01766 23.95625 122.17391Q23.3625 122.31454 22.58125 122.31454L19.471874 122.31454ZM20.6125 121.29891L22.440624 121.29891Q23.3 121.29891 23.784374 121.14266Q24.26875 120.98641 24.55 120.68954Q24.95625 120.29891 25.175 119.61141Q25.409374 118.92391 25.409374 117.95516Q25.409374 116.61141 24.95625 115.89266Q24.51875 115.15829 23.89375 114.90829Q23.425 114.73641 22.425 114.73641L20.6125 114.73641L20.6125 121.29891ZM32.409374 121.54891Q31.815624 122.04891 31.26875 122.25204Q30.7375 122.45516 30.1125 122.45516Q29.08125 122.45516 28.534374 121.95516Q27.9875 121.45516 27.9875 120.67391Q27.9875 120.22079 28.190624 119.84579Q28.39375 119.45516 28.7375 119.23641Q29.08125 119.00204 29.503124 118.89266Q29.8 118.79891 30.440624 118.72079Q31.70625 118.58016 32.315624 118.36141Q32.315624 118.14266 32.315624 118.09579Q32.315624 117.43954 32.01875 117.17391Q31.6125 116.83016 30.815624 116.83016Q30.08125 116.83016 29.721874 117.09579Q29.3625 117.34579 29.190624 118.00204L28.159374 117.86141Q28.3 117.20516 28.628124 116.79891Q28.95625 116.39266 29.565624 116.17391Q30.175 115.95516 30.971874 115.95516Q31.76875 115.95516 32.26875 116.14266Q32.76875 116.33016 33.003124 116.61141Q33.2375 116.89266 33.33125 117.33016Q33.378124 117.59579 33.378124 118.29891L33.378124 119.70516Q33.378124 121.17391 33.440624 121.56454Q33.51875 121.95516 33.721874 122.31454L32.6125 122.31454Q32.45625 121.98641 32.409374 121.54891ZM32.315624 119.18954Q31.7375 119.42391 30.596874 119.59579Q29.940624 119.68954 29.675 119.81454Q29.409374 119.92391 29.253124 120.14266Q29.1125 120.36141 29.1125 120.64266Q29.1125 121.06454 29.425 121.34579Q29.753124 121.62704 30.3625 121.62704Q30.971874 121.62704 31.440624 121.36141Q31.925 121.09579 32.14375 120.62704Q32.315624 120.26766 32.315624 119.58016L32.315624 119.18954ZM37.64375 121.37704L37.8 122.29891Q37.346874 122.39266 37.003124 122.39266Q36.425 122.39266 36.1125 122.22079Q35.8 122.03329 35.659374 121.73641Q35.534374 121.43954 35.534374 120.48641L35.534374 116.90829L34.76875 116.90829L34.76875 116.09579L35.534374 116.09579L35.534374 114.54891L36.58125 113.92391L36.58125 116.09579L37.64375 116.09579L37.64375 116.90829L36.58125 116.90829L36.58125 120.54891Q36.58125 121.00204 36.628124 121.12704Q36.690624 121.25204 36.815624 121.33016Q36.940624 121.40829 37.175 121.40829Q37.3625 121.40829 37.64375 121.37704ZM42.409374 121.54891Q41.815624 122.04891 41.26875 122.25204Q40.7375 122.45516 40.1125 122.45516Q39.08125 122.45516 38.534374 121.95516Q37.9875 121.45516 37.9875 120.67391Q37.9875 120.22079 38.190624 119.84579Q38.39375 119.45516 38.7375 119.23641Q39.08125 119.00204 39.503124 118.89266Q39.8 118.79891 40.440624 118.72079Q41.70625 118.58016 42.315624 118.36141Q42.315624 118.14266 42.315624 118.09579Q42.315624 117.43954 42.01875 117.17391Q41.6125 116.83016 40.815624 116.83016Q40.08125 116.83016 39.721874 117.09579Q39.3625 117.34579 39.190624 118.00204L38.159374 117.86141Q38.3 117.20516 38.628124 116.79891Q38.95625 116.39266 39.565624 116.17391Q40.175 115.95516 40.971874 115.95516Q41.76875 115.95516 42.26875 116.14266Q42.76875 116.33016 43.003124 116.61141Q43.2375 116.89266 43.33125 117.33016Q43.378124 117.59579 43.378124 118.29891L43.378124 119.70516Q43.378124 121.17391 43.440624 121.56454Q43.51875 121.95516 43.721874 122.31454L42.6125 122.31454Q42.45625 121.98641 42.409374 121.54891ZM42.315624 119.18954Q41.7375 119.42391 40.596874 119.59579Q39.940624 119.68954 39.675 119.81454Q39.409374 119.92391 39.253124 120.14266Q39.1125 120.36141 39.1125 120.64266Q39.1125 121.06454 39.425 121.34579Q39.753124 121.62704 40.3625 121.62704Q40.971874 121.62704 41.440624 121.36141Q41.925 121.09579 42.14375 120.62704Q42.315624 120.26766 42.315624 119.58016L42.315624 119.18954ZM45.534374 122.31454L45.534374 113.72079L51.33125 113.72079L51.33125 114.73641L46.675 114.73641L46.675 117.39266L50.70625 117.39266L50.70625 118.40829L46.675 118.40829L46.675 122.31454L45.534374 122.31454ZM56.425 122.31454L56.425 121.39266Q55.690624 122.45516 54.440624 122.45516Q53.89375 122.45516 53.409374 122.25204Q52.940624 122.03329 52.70625 121.72079Q52.471874 121.39266 52.378124 120.92391Q52.315624 120.62704 52.315624 119.93954L52.315624 116.09579L53.378124 116.09579L53.378124 119.54891Q53.378124 120.36141 53.440624 120.65829Q53.534374 121.06454 53.846874 121.31454Q54.175 121.54891 54.659374 121.54891Q55.128124 121.54891 55.534374 121.31454Q55.95625 121.06454 56.128124 120.64266Q56.315624 120.22079 56.315624 119.42391L56.315624 116.09579L57.3625 116.09579L57.3625 122.31454L56.425 122.31454ZM58.925 120.45516L59.95625 120.29891Q60.05 120.92391 60.440624 121.25204Q60.846874 121.58016 61.58125 121.58016Q62.3 121.58016 62.64375 121.29891Q63.003124 121.00204 63.003124 120.59579Q63.003124 120.23641 62.690624 120.03329Q62.471874 119.89266 61.6125 119.67391Q60.45625 119.37704 60.003124 119.17391Q59.565624 118.95516 59.33125 118.58016Q59.096874 118.20516 59.096874 117.73641Q59.096874 117.33016 59.284374 116.97079Q59.471874 116.61141 59.8 116.37704Q60.05 116.20516 60.471874 116.08016Q60.89375 115.95516 61.39375 115.95516Q62.1125 115.95516 62.659374 116.17391Q63.221874 116.37704 63.4875 116.73641Q63.753124 117.09579 63.846874 117.68954L62.815624 117.83016Q62.753124 117.36141 62.409374 117.09579Q62.08125 116.81454 61.45625 116.81454Q60.7375 116.81454 60.425 117.06454Q60.1125 117.29891 60.1125 117.62704Q60.1125 117.83016 60.2375 117.98641Q60.378124 118.15829 60.64375 118.26766Q60.8 118.33016 61.58125 118.53329Q62.70625 118.84579 63.14375 119.03329Q63.58125 119.22079 63.83125 119.58016Q64.08125 119.93954 64.08125 120.48641Q64.08125 121.01766 63.76875 121.48641Q63.471874 121.93954 62.89375 122.20516Q62.315624 122.45516 61.58125 122.45516Q60.3625 122.45516 59.721874 121.95516Q59.096874 121.43954 58.925 120.45516ZM66.34688 114.93954L66.34688 113.72079L67.40938 113.72079L67.40938 114.93954L66.34688 114.93954ZM66.34688 122.31454L66.34688 116.09579L67.40938 116.09579L67.40938 122.31454L66.34688 122.31454ZM68.95625 119.20516Q68.95625 117.47079 69.90938 116.64266Q70.70625 115.95516 71.8625 115.95516Q73.14375 115.95516 73.95625 116.79891Q74.78438 117.62704 74.78438 119.11141Q74.78438 120.31454 74.425 121.00204Q74.06563 121.68954 73.3625 122.08016Q72.675 122.45516 71.8625 122.45516Q70.56563 122.45516 69.75313 121.62704Q68.95625 120.78329 68.95625 119.20516ZM70.03438 119.20516Q70.03438 120.39266 70.55 120.98641Q71.08125 121.58016 71.8625 121.58016Q72.65938 121.58016 73.175 120.98641Q73.69063 120.39266 73.69063 119.17391Q73.69063 118.01766 73.15938 117.42391Q72.64375 116.83016 71.8625 116.83016Q71.08125 116.83016 70.55 117.42391Q70.03438 118.00204 70.03438 119.20516ZM76.34688 122.31454L76.34688 116.09579L77.28438 116.09579L77.28438 116.97079Q77.97188 115.95516 79.26875 115.95516Q79.83125 115.95516 80.3 116.15829Q80.78438 116.36141 81.01875 116.68954Q81.25313 117.01766 81.34688 117.45516Q81.39375 117.75204 81.39375 118.48641L81.39375 122.31454L80.34688 122.31454L80.34688 118.53329Q80.34688 117.87704 80.22188 117.56454Q80.09688 117.25204 79.78438 117.06454Q79.47188 116.86141 79.05 116.86141Q78.37813 116.86141 77.87813 117.29891Q77.39375 117.72079 77.39375 118.90829L77.39375 122.31454L76.34688 122.31454Z" fill-rule="nonzero"/><path fill="#000000" d="M29.33125 231.05212L29.33125 224.83337L30.284374 224.83337L30.284374 225.77087Q30.64375 225.11462 30.940624 224.9115Q31.253124 224.69275 31.628124 224.69275Q32.159374 224.69275 32.70625 225.02087L32.346874 226.00525Q31.95625 225.77087 31.58125 225.77087Q31.221874 225.77087 30.940624 225.98962Q30.675 226.19275 30.565624 226.56775Q30.378124 227.13025 30.378124 227.7865L30.378124 231.05212L29.33125 231.05212ZM32.95625 227.94275Q32.95625 226.20837 33.909374 225.38025Q34.70625 224.69275 35.8625 224.69275Q37.14375 224.69275 37.95625 225.5365Q38.784374 226.36462 38.784374 227.849Q38.784374 229.05212 38.425 229.73962Q38.065624 230.42712 37.3625 230.81775Q36.675 231.19275 35.8625 231.19275Q34.565624 231.19275 33.753124 230.36462Q32.95625 229.52087 32.95625 227.94275ZM34.034374 227.94275Q34.034374 229.13025 34.55 229.724Q35.08125 230.31775 35.8625 230.31775Q36.659374 230.31775 37.175 229.724Q37.690624 229.13025 37.690624 227.9115Q37.690624 226.75525 37.159374 226.1615Q36.64375 225.56775 35.8625 225.56775Q35.08125 225.56775 34.55 226.1615Q34.034374 226.73962 34.034374 227.94275ZM40.346874 233.44275L40.346874 224.83337L41.3 224.83337L41.3 225.63025Q41.64375 225.1615 42.065624 224.92712Q42.503124 224.69275 43.1125 224.69275Q43.909374 224.69275 44.51875 225.099Q45.128124 225.50525 45.425 226.25525Q45.7375 227.00525 45.7375 227.89587Q45.7375 228.849 45.39375 229.61462Q45.065624 230.38025 44.409374 230.7865Q43.753124 231.19275 43.034374 231.19275Q42.503124 231.19275 42.08125 230.974Q41.659374 230.73962 41.39375 230.4115L41.39375 233.44275L40.346874 233.44275ZM41.3 227.974Q41.3 229.17712 41.784374 229.75525Q42.26875 230.31775 42.95625 230.31775Q43.659374 230.31775 44.159374 229.724Q44.659374 229.13025 44.659374 227.88025Q44.659374 226.69275 44.175 226.11462Q43.690624 225.52087 43.003124 225.52087Q42.33125 225.52087 41.815624 226.14587Q41.3 226.77087 41.3 227.974ZM49.64375 230.11462L49.8 231.0365Q49.346874 231.13025 49.003124 231.13025Q48.425 231.13025 48.1125 230.95837Q47.8 230.77087 47.659374 230.474Q47.534374 230.17712 47.534374 229.224L47.534374 225.64587L46.76875 225.64587L46.76875 224.83337L47.534374 224.83337L47.534374 223.2865L48.58125 222.6615L48.58125 224.83337L49.64375 224.83337L49.64375 225.64587L48.58125 225.64587L48.58125 229.2865Q48.58125 229.73962 48.628124 229.86462Q48.690624 229.98962 48.815624 230.06775Q48.940624 230.14587 49.175 230.14587Q49.3625 230.14587 49.64375 230.11462ZM50.346874 223.67712L50.346874 222.45837L51.409374 222.45837L51.409374 223.67712L50.346874 223.67712ZM50.346874 231.05212L50.346874 224.83337L51.409374 224.83337L51.409374 231.05212L50.346874 231.05212ZM53.346874 231.05212L53.346874 224.83337L54.284374 224.83337L54.284374 225.70837Q54.58125 225.23962 55.065624 224.974Q55.55 224.69275 56.175 224.69275Q56.8625 224.69275 57.3 224.974Q57.753124 225.25525 57.925 225.77087Q58.675 224.69275 59.846874 224.69275Q60.784374 224.69275 61.26875 225.20837Q61.76875 225.70837 61.76875 226.7865L61.76875 231.05212L60.721874 231.05212L60.721874 227.13025Q60.721874 226.50525 60.6125 226.224Q60.51875 225.94275 60.253124 225.77087Q59.9875 225.599 59.6125 225.599Q58.95625 225.599 58.51875 226.0365Q58.096874 226.474 58.096874 227.44275L58.096874 231.05212L57.034374 231.05212L57.034374 227.00525Q57.034374 226.30212 56.76875 225.95837Q56.51875 225.599 55.940624 225.599Q55.4875 225.599 55.1125 225.83337Q54.7375 226.06775 54.565624 226.52087Q54.39375 226.974 54.39375 227.81775L54.39375 231.05212L53.346874 231.05212ZM64.34688 223.67712L64.34688 222.45837L65.40938 222.45837L65.40938 223.67712L64.34688 223.67712ZM64.34688 231.05212L64.34688 224.83337L65.40938 224.83337L65.40938 231.05212L64.34688 231.05212ZM66.78438 231.05212L66.78438 230.19275L70.75313 225.64587Q70.06563 225.67712 69.55 225.67712L67.01875 225.67712L67.01875 224.83337L72.1125 224.83337L72.1125 225.52087L68.7375 229.474L68.08125 230.19275Q68.8 230.14587 69.40938 230.14587L72.3 230.14587L72.3 231.05212L66.78438 231.05212ZM76.59688 229.05212L77.69063 229.17712Q77.44063 230.13025 76.7375 230.6615Q76.03438 231.19275 74.95625 231.19275Q73.59688 231.19275 72.78438 230.349Q71.9875 229.50525 71.9875 227.98962Q71.9875 226.42712 72.8 225.56775Q73.6125 224.69275 74.89375 224.69275Q76.14375 224.69275 76.925 225.5365Q77.72188 226.38025 77.72188 227.92712Q77.72188 228.02087 77.72188 228.20837L73.08125 228.20837Q73.14375 229.23962 73.65938 229.7865Q74.175 230.31775 74.95625 230.31775Q75.53438 230.31775 75.94063 230.02087Q76.3625 229.70837 76.59688 229.05212ZM73.14375 227.349L76.6125 227.349Q76.55 226.55212 76.22188 226.1615Q75.70625 225.55212 74.90938 225.55212Q74.175 225.55212 73.675 226.0365Q73.19063 226.52087 73.14375 227.349ZM79.33125 231.05212L79.33125 224.83337L80.28438 224.83337L80.28438 225.77087Q80.64375 225.11462 80.94063 224.9115Q81.25313 224.69275 81.62813 224.69275Q82.15938 224.69275 82.70625 225.02087L82.34688 226.00525Q81.95625 225.77087 81.58125 225.77087Q81.22188 225.77087 80.94063 225.98962Q80.675 226.19275 80.56563 226.56775Q80.37813 227.13025 80.37813 227.7865L80.37813 231.05212L79.33125 231.05212Z" fill-rule="nonzero"/><path fill="#000000" d="M85.55 313.21564Q85.55 311.6844 85.8625 310.7625Q86.175 309.825 86.78438 309.325Q87.40938 308.825 88.34688 308.825Q89.03438 308.825 89.55 309.10626Q90.08125 309.3875 90.425 309.91876Q90.76875 310.4344 90.95625 311.1844Q91.14375 311.9344 91.14375 313.21564Q91.14375 314.73126 90.83125 315.65314Q90.53438 316.575 89.90938 317.09064Q89.3 317.59064 88.34688 317.59064Q87.1125 317.59064 86.39375 316.7Q85.55 315.6375 85.55 313.21564ZM86.62813 313.21564Q86.62813 315.325 87.12813 316.02814Q87.62813 316.73126 88.34688 316.73126Q89.08125 316.73126 89.56563 316.02814Q90.06563 315.325 90.06563 313.21564Q90.06563 311.09064 89.56563 310.40314Q89.08125 309.7 88.33125 309.7Q87.6125 309.7 87.175 310.3094Q86.62813 311.09064 86.62813 313.21564Z" fill-rule="nonzero"/><path fill="#000000" d="M184.59875 317.45L183.55188 317.45L183.55188 310.73126Q183.16125 311.09064 182.53625 311.46564Q181.92688 311.825 181.4425 311.9969L181.4425 310.98126Q182.3175 310.5594 182.97375 309.98126Q183.64563 309.3875 183.92688 308.825L184.59875 308.825L184.59875 317.45ZM187.63 313.21564Q187.63 311.6844 187.9425 310.7625Q188.255 309.825 188.86438 309.325Q189.48938 308.825 190.42688 308.825Q191.11438 308.825 191.63 309.10626Q192.16125 309.3875 192.505 309.91876Q192.84875 310.4344 193.03625 311.1844Q193.22375 311.9344 193.22375 313.21564Q193.22375 314.73126 192.91125 315.65314Q192.61438 316.575 191.98938 317.09064Q191.38 317.59064 190.42688 317.59064Q189.1925 317.59064 188.47375 316.7Q187.63 315.6375 187.63 313.21564ZM188.70813 313.21564Q188.70813 315.325 189.20813 316.02814Q189.70813 316.73126 190.42688 316.73126Q191.16125 316.73126 191.64563 316.02814Q192.14563 315.325 192.14563 313.21564Q192.14563 311.09064 191.64563 310.40314Q191.16125 309.7 190.41125 309.7Q189.6925 309.7 189.255 310.3094Q188.70813 311.09064 188.70813 313.21564Z" fill-rule="nonzero"/><path fill="#000000" d="M284.75687 316.4344L284.75687 317.45L279.06937 317.45Q279.06937 317.075 279.19437 316.71564Q279.41312 316.1375 279.88187 315.575Q280.36624 315.0125 281.2725 314.27814Q282.67874 313.1219 283.16312 312.45Q283.66312 311.77814 283.66312 311.1844Q283.66312 310.5594 283.21 310.1375Q282.75687 309.7 282.03812 309.7Q281.2725 309.7 280.81937 310.15314Q280.36624 310.60626 280.35062 311.41876L279.2725 311.3094Q279.38187 310.09064 280.10062 309.46564Q280.835 308.825 282.06937 308.825Q283.30374 308.825 284.0225 309.5125Q284.74124 310.2 284.74124 311.21564Q284.74124 311.73126 284.5225 312.23126Q284.31937 312.71564 283.81937 313.27814Q283.335 313.825 282.21 314.77814Q281.25687 315.575 280.97562 315.8719Q280.71 316.15314 280.53812 316.4344L284.75687 316.4344ZM286.21 313.21564Q286.21 311.6844 286.5225 310.7625Q286.835 309.825 287.44437 309.325Q288.06937 308.825 289.00687 308.825Q289.69437 308.825 290.21 309.10626Q290.74124 309.3875 291.085 309.91876Q291.42874 310.4344 291.61624 311.1844Q291.80374 311.9344 291.80374 313.21564Q291.80374 314.73126 291.49124 315.65314Q291.19437 316.575 290.56937 317.09064Q289.96 317.59064 289.00687 317.59064Q287.7725 317.59064 287.05374 316.7Q286.21 315.6375 286.21 313.21564ZM287.28812 313.21564Q287.28812 315.325 287.78812 316.02814Q288.28812 316.73126 289.00687 316.73126Q289.74124 316.73126 290.22562 316.02814Q290.72562 315.325 290.72562 313.21564Q290.72562 311.09064 290.22562 310.40314Q289.74124 309.7 288.99124 309.7Q288.2725 309.7 287.835 310.3094Q287.28812 311.09064 287.28812 313.21564Z" fill-rule="nonzero"/><path fill="#000000" d="M377.79 315.1844L378.8525 315.04376Q379.02438 315.9344 379.46188 316.34064Q379.89938 316.73126 380.52438 316.73126Q381.27438 316.73126 381.79 316.21564Q382.30563 315.7 382.30563 314.9344Q382.30563 314.21564 381.82126 313.7469Q381.3525 313.2625 380.61813 313.2625Q380.32126 313.2625 379.86813 313.3875L379.99313 312.45Q380.1025 312.46564 380.165 312.46564Q380.83688 312.46564 381.36813 312.1219Q381.915 311.7625 381.915 311.02814Q381.915 310.45 381.52438 310.075Q381.13376 309.6844 380.50876 309.6844Q379.89938 309.6844 379.4775 310.075Q379.07126 310.46564 378.96188 311.23126L377.89938 311.04376Q378.08688 309.9969 378.77438 309.41876Q379.46188 308.825 380.4775 308.825Q381.18063 308.825 381.77438 309.1375Q382.36813 309.4344 382.68063 309.95Q382.99313 310.46564 382.99313 311.0594Q382.99313 311.60626 382.69626 312.075Q382.39938 312.52814 381.82126 312.79376Q382.57126 312.96564 382.99313 313.52814Q383.415 314.075 383.415 314.91876Q383.415 316.04376 382.58688 316.825Q381.77438 317.60626 380.52438 317.60626Q379.39938 317.60626 378.64938 316.9344Q377.89938 316.2469 377.79 315.1844ZM384.79 313.21564Q384.79 311.6844 385.1025 310.7625Q385.415 309.825 386.02438 309.325Q386.64938 308.825 387.58688 308.825Q388.27438 308.825 388.79 309.10626Q389.32126 309.3875 389.665 309.91876Q390.00876 310.4344 390.19626 311.1844Q390.38376 311.9344 390.38376 313.21564Q390.38376 314.73126 390.07126 315.65314Q389.77438 316.575 389.14938 317.09064Q388.54 317.59064 387.58688 317.59064Q386.3525 317.59064 385.63376 316.7Q384.79 315.6375 384.79 313.21564ZM385.86813 313.21564Q385.86813 315.325 386.36813 316.02814Q386.86813 316.73126 387.58688 316.73126Q388.32126 316.73126 388.80563 316.02814Q389.30563 315.325 389.30563 313.21564Q389.30563 311.09064 388.80563 310.40314Q388.32126 309.7 387.57126 309.7Q386.8525 309.7 386.415 310.3094Q385.86813 311.09064 385.86813 313.21564Z" fill-rule="nonzero"/><path fill="#000000" d="M479.745 317.45L479.745 315.3875L476.02625 315.3875L476.02625 314.41876L479.94812 308.85626L480.8075 308.85626L480.8075 314.41876L481.96375 314.41876L481.96375 315.3875L480.8075 315.3875L480.8075 317.45L479.745 317.45ZM479.745 314.41876L479.745 310.5594L477.0575 314.41876L479.745 314.41876ZM483.37 313.21564Q483.37 311.6844 483.6825 310.7625Q483.995 309.825 484.60437 309.325Q485.22937 308.825 486.16687 308.825Q486.85437 308.825 487.37 309.10626Q487.90125 309.3875 488.245 309.91876Q488.58875 310.4344 488.77625 311.1844Q488.96375 311.9344 488.96375 313.21564Q488.96375 314.73126 488.65125 315.65314Q488.35437 316.575 487.72937 317.09064Q487.12 317.59064 486.16687 317.59064Q484.9325 317.59064 484.21375 316.7Q483.37 315.6375 483.37 313.21564ZM484.44812 313.21564Q484.44812 315.325 484.94812 316.02814Q485.44812 316.73126 486.16687 316.73126Q486.90125 316.73126 487.38562 316.02814Q487.88562 315.325 487.88562 313.21564Q487.88562 311.09064 487.38562 310.40314Q486.90125 309.7 486.15125 309.7Q485.4325 309.7 484.995 310.3094Q484.44812 311.09064 484.44812 313.21564Z" fill-rule="nonzero"/><path fill="#000000" d="M574.95 315.2L576.0594 315.10626Q576.1844 315.91876 576.6219 316.325Q577.075 316.73126 577.71564 316.73126Q578.46564 316.73126 578.9969 316.15314Q579.52814 315.575 579.52814 314.6375Q579.52814 313.73126 579.0125 313.21564Q578.5125 312.6844 577.6844 312.6844Q577.1844 312.6844 576.7625 312.91876Q576.35626 313.15314 576.1219 313.5125L575.1375 313.3875L575.96564 308.98126L580.2469 308.98126L580.2469 309.98126L576.8094 309.98126L576.35626 312.29376Q577.1219 311.7469 577.96564 311.7469Q579.09064 311.7469 579.85626 312.52814Q580.6375 313.3094 580.6375 314.54376Q580.6375 315.7 579.96564 316.5594Q579.1375 317.59064 577.71564 317.59064Q576.54376 317.59064 575.79376 316.9344Q575.0594 316.27814 574.95 315.2ZM581.95 313.21564Q581.95 311.6844 582.2625 310.7625Q582.575 309.825 583.1844 309.325Q583.8094 308.825 584.7469 308.825Q585.4344 308.825 585.95 309.10626Q586.48126 309.3875 586.825 309.91876Q587.16876 310.4344 587.35626 311.1844Q587.54376 311.9344 587.54376 313.21564Q587.54376 314.73126 587.23126 315.65314Q586.9344 316.575 586.3094 317.09064Q585.7 317.59064 584.7469 317.59064Q583.5125 317.59064 582.79376 316.7Q581.95 315.6375 581.95 313.21564ZM583.02814 313.21564Q583.02814 315.325 583.52814 316.02814Q584.02814 316.73126 584.7469 316.73126Q585.48126 316.73126 585.96564 316.02814Q586.46564 315.325 586.46564 313.21564Q586.46564 311.09064 585.96564 310.40314Q585.48126 309.7 584.73126 309.7Q584.0125 309.7 583.575 310.3094Q583.02814 311.09064 583.02814 313.21564Z" fill-rule="nonzero"/><path fill="#4285f4" d="M219.5 20.55C219.5 19.997715 219.94771 19.55 220.5 19.55L230.5 19.55C231.05229 19.55 231.5 19.997715 231.5 20.55L231.5 30.55C231.5 31.102285 231.05229 31.55 230.5 31.55L220.5 31.55C219.94771 31.55 219.5 31.102285 219.5 30.55Z" fill-rule="nonzero"/><path fill="#1a1a1a" d="M240.07812 25.3625Q240.07812 23.221874 241.21875 22.01875Q242.375 20.8 244.1875 20.8Q245.39062 20.8 246.34375 21.378124Q247.29688 21.940624 247.79688 22.95625Q248.29688 23.971874 248.29688 25.26875Q248.29688 26.565624 247.76562 27.596874Q247.23438 28.628124 246.26562 29.159374Q245.3125 29.690624 244.1875 29.690624Q242.96875 29.690624 242.01562 29.1125Q241.0625 28.51875 240.5625 27.51875Q240.07812 26.503124 240.07812 25.3625ZM241.25 25.378124Q241.25 26.940624 242.07812 27.83125Q242.92188 28.721874 244.1875 28.721874Q245.46875 28.721874 246.29688 27.83125Q247.125 26.925 247.125 25.253124Q247.125 24.20625 246.76562 23.425Q246.42188 22.64375 245.73438 22.221874Q245.04688 21.784374 244.20312 21.784374Q243.0 21.784374 242.125 22.6125Q241.25 23.440624 241.25 25.378124ZM249.29688 31.940624L249.29688 23.33125L250.25 23.33125L250.25 24.128124Q250.59375 23.659374 251.01562 23.425Q251.45312 23.190624 252.0625 23.190624Q252.85938 23.190624 253.46875 23.596874Q254.07812 24.003124 254.375 24.753124Q254.6875 25.503124 254.6875 26.39375Q254.6875 27.346874 254.34375 28.1125Q254.01562 28.878124 253.35938 29.284374Q252.70312 29.690624 251.98438 29.690624Q251.45312 29.690624 251.03125 29.471874Q250.60938 29.2375 250.34375 28.909374L250.34375 31.940624L249.29688 31.940624ZM250.25 26.471874Q250.25 27.675 250.73438 28.253124Q251.21875 28.815624 251.90625 28.815624Q252.60938 28.815624 253.10938 28.221874Q253.60938 27.628124 253.60938 26.378124Q253.60938 25.190624 253.125 24.6125Q252.64062 24.01875 251.95312 24.01875Q251.28125 24.01875 250.76562 24.64375Q250.25 25.26875 250.25 26.471874ZM258.59375 28.6125L258.75 29.534374Q258.29688 29.628124 257.95312 29.628124Q257.375 29.628124 257.0625 29.45625Q256.75 29.26875 256.60938 28.971874Q256.48438 28.675 256.48438 27.721874L256.48438 24.14375L255.71875 24.14375L255.71875 23.33125L256.48438 23.33125L256.48438 21.784374L257.53125 21.159374L257.53125 23.33125L258.59375 23.33125L258.59375 24.14375L257.53125 24.14375L257.53125 27.784374Q257.53125 28.2375 257.57812 28.3625Q257.64062 28.4875 257.76562 28.565624Q257.89062 28.64375 258.125 28.64375Q258.3125 28.64375 258.59375 28.6125ZM259.29688 22.175L259.29688 20.95625L260.35938 20.95625L260.35938 22.175L259.29688 22.175ZM259.29688 29.55L259.29688 23.33125L260.35938 23.33125L260.35938 29.55L259.29688 29.55ZM262.29688 29.55L262.29688 23.33125L263.23438 23.33125L263.23438 24.20625Q263.53125 23.7375 264.01562 23.471874Q264.5 23.190624 265.125 23.190624Q265.8125 23.190624 266.25 23.471874Q266.70312 23.753124 266.875 24.26875Q267.625 23.190624 268.79688 23.190624Q269.73438 23.190624 270.21875 23.70625Q270.71875 24.20625 270.71875 25.284374L270.71875 29.55L269.67188 29.55L269.67188 25.628124Q269.67188 25.003124 269.5625 24.721874Q269.46875 24.440624 269.20312 24.26875Q268.9375 24.096874 268.5625 24.096874Q267.90625 24.096874 267.46875 24.534374Q267.04688 24.971874 267.04688 25.940624L267.04688 29.55L265.98438 29.55L265.98438 25.503124Q265.98438 24.8 265.71875 24.45625Q265.46875 24.096874 264.89062 24.096874Q264.4375 24.096874 264.0625 24.33125Q263.6875 24.565624 263.51562 25.01875Q263.34375 25.471874 263.34375 26.315624L263.34375 29.55L262.29688 29.55ZM273.29688 22.175L273.29688 20.95625L274.35938 20.95625L274.35938 22.175L273.29688 22.175ZM273.29688 29.55L273.29688 23.33125L274.35938 23.33125L274.35938 29.55L273.29688 29.55ZM275.73438 29.55L275.73438 28.690624L279.70312 24.14375Q279.01562 24.175 278.5 24.175L275.96875 24.175L275.96875 23.33125L281.0625 23.33125L281.0625 24.01875L277.6875 27.971874L277.03125 28.690624Q277.75 28.64375 278.35938 28.64375L281.25 28.64375L281.25 29.55L275.73438 29.55ZM285.54688 27.55L286.64062 27.675Q286.39062 28.628124 285.6875 29.159374Q284.98438 29.690624 283.90625 29.690624Q282.54688 29.690624 281.73438 28.846874Q280.9375 28.003124 280.9375 26.4875Q280.9375 24.925 281.75 24.065624Q282.5625 23.190624 283.84375 23.190624Q285.09375 23.190624 285.875 24.034374Q286.67188 24.878124 286.67188 26.425Q286.67188 26.51875 286.67188 26.70625L282.03125 26.70625Q282.09375 27.7375 282.60938 28.284374Q283.125 28.815624 283.90625 28.815624Q284.48438 28.815624 284.89062 28.51875Q285.3125 28.20625 285.54688 27.55ZM282.09375 25.846874L285.5625 25.846874Q285.5 25.05 285.17188 24.659374Q284.65625 24.05 283.85938 24.05Q283.125 24.05 282.625 24.534374Q282.14062 25.01875 282.09375 25.846874ZM288.28125 29.55L288.28125 23.33125L289.23438 23.33125L289.23438 24.26875Q289.59375 23.6125 289.89062 23.409374Q290.20312 23.190624 290.57812 23.190624Q291.10938 23.190624 291.65625 23.51875L291.29688 24.503124Q290.90625 24.26875 290.53125 24.26875Q290.17188 24.26875 289.89062 24.4875Q289.625 24.690624 289.51562 25.065624Q289.32812 25.628124 289.32812 26.284374L289.32812 29.55L288.28125 29.55Z" fill-rule="nonzero"/><path fill="#ea4335" d="M307.5 20.55C307.5 19.997715 307.94772 19.55 308.5 19.55L318.5 19.55C319.05228 19.55 319.5 19.997715 319.5 20.55L319.5 30.55C319.5 31.102285 319.05228 31.55 318.5 31.55L308.5 31.55C307.94772 31.55 307.5 31.102285 307.5 30.55Z" fill-rule="nonzero"/><path fill="#1a1a1a" d="M328.45312 29.55L328.45312 20.95625L334.65625 20.95625L334.65625 21.971874L329.59375 21.971874L329.59375 24.596874L334.34375 24.596874L334.34375 25.6125L329.59375 25.6125L329.59375 28.534374L334.85938 28.534374L334.85938 29.55L328.45312 29.55ZM335.59375 29.55L337.85938 26.315624L335.76562 23.33125L337.07812 23.33125L338.03125 24.784374Q338.29688 25.20625 338.46875 25.4875Q338.71875 25.096874 338.9375 24.8L339.98438 23.33125L341.25 23.33125L339.09375 26.253124L341.40625 29.55L340.125 29.55L338.84375 27.6125L338.5 27.096874L336.85938 29.55L335.59375 29.55ZM345.54688 27.55L346.64062 27.675Q346.39062 28.628124 345.6875 29.159374Q344.98438 29.690624 343.90625 29.690624Q342.54688 29.690624 341.73438 28.846874Q340.9375 28.003124 340.9375 26.4875Q340.9375 24.925 341.75 24.065624Q342.5625 23.190624 343.84375 23.190624Q345.09375 23.190624 345.875 24.034374Q346.67188 24.878124 346.67188 26.425Q346.67188 26.51875 346.67188 26.70625L342.03125 26.70625Q342.09375 27.7375 342.60938 28.284374Q343.125 28.815624 343.90625 28.815624Q344.48438 28.815624 344.89062 28.51875Q345.3125 28.20625 345.54688 27.55ZM342.09375 25.846874L345.5625 25.846874Q345.5 25.05 345.17188 24.659374Q344.65625 24.05 343.85938 24.05Q343.125 24.05 342.625 24.534374Q342.14062 25.01875 342.09375 25.846874ZM352.35938 27.26875L353.39062 27.409374Q353.21875 28.471874 352.51562 29.08125Q351.8125 29.690624 350.79688 29.690624Q349.51562 29.690624 348.73438 28.8625Q347.96875 28.01875 347.96875 26.45625Q347.96875 25.45625 348.29688 24.70625Q348.64062 23.940624 349.3125 23.565624Q350.0 23.190624 350.8125 23.190624Q351.8125 23.190624 352.45312 23.70625Q353.10938 24.20625 353.29688 25.159374L352.26562 25.315624Q352.125 24.690624 351.75 24.378124Q351.375 24.05 350.84375 24.05Q350.04688 24.05 349.54688 24.628124Q349.04688 25.190624 349.04688 26.425Q349.04688 27.690624 349.53125 28.253124Q350.01562 28.815624 350.78125 28.815624Q351.40625 28.815624 351.8125 28.440624Q352.23438 28.065624 352.35938 27.26875ZM358.375 29.55L358.375 28.628124Q357.64062 29.690624 356.39062 29.690624Q355.84375 29.690624 355.35938 29.4875Q354.89062 29.26875 354.65625 28.95625Q354.42188 28.628124 354.32812 28.159374Q354.26562 27.8625 354.26562 27.175L354.26562 23.33125L355.32812 23.33125L355.32812 26.784374Q355.32812 27.596874 355.39062 27.89375Q355.48438 28.3 355.79688 28.55Q356.125 28.784374 356.60938 28.784374Q357.07812 28.784374 357.48438 28.55Q357.90625 28.3 358.07812 27.878124Q358.26562 27.45625 358.26562 26.659374L358.26562 23.33125L359.3125 23.33125L359.3125 29.55L358.375 29.55ZM363.59375 28.6125L363.75 29.534374Q363.29688 29.628124 362.95312 29.628124Q362.375 29.628124 362.0625 29.45625Q361.75 29.26875 361.60938 28.971874Q361.48438 28.675 361.48438 27.721874L361.48438 24.14375L360.71875 24.14375L360.71875 23.33125L361.48438 23.33125L361.48438 21.784374L362.53125 21.159374L362.53125 23.33125L363.59375 23.33125L363.59375 24.14375L362.53125 24.14375L362.53125 27.784374Q362.53125 28.2375 362.57812 28.3625Q362.64062 28.4875 362.76562 28.565624Q362.89062 28.64375 363.125 28.64375Q363.3125 28.64375 363.59375 28.6125ZM364.29688 22.175L364.29688 20.95625L365.35938 20.95625L365.35938 22.175L364.29688 22.175ZM364.29688 29.55L364.29688 23.33125L365.35938 23.33125L365.35938 29.55L364.29688 29.55ZM366.90625 26.440624Q366.90625 24.70625 367.85938 23.878124Q368.65625 23.190624 369.8125 23.190624Q371.09375 23.190624 371.90625 24.034374Q372.73438 24.8625 372.73438 26.346874Q372.73438 27.55 372.375 28.2375Q372.01562 28.925 371.3125 29.315624Q370.625 29.690624 369.8125 29.690624Q368.51562 29.690624 367.70312 28.8625Q366.90625 28.01875 366.90625 26.440624ZM367.98438 26.440624Q367.98438 27.628124 368.5 28.221874Q369.03125 28.815624 369.8125 28.815624Q370.60938 28.815624 371.125 28.221874Q371.64062 27.628124 371.64062 26.409374Q371.64062 25.253124 371.10938 24.659374Q370.59375 24.065624 369.8125 24.065624Q369.03125 24.065624 368.5 24.659374Q367.98438 25.2375 367.98438 26.440624ZM374.29688 29.55L374.29688 23.33125L375.23438 23.33125L375.23438 24.20625Q375.92188 23.190624 377.21875 23.190624Q377.78125 23.190624 378.25 23.39375Q378.73438 23.596874 378.96875 23.925Q379.20312 24.253124 379.29688 24.690624Q379.34375 24.9875 379.34375 25.721874L379.34375 29.55L378.29688 29.55L378.29688 25.76875Q378.29688 25.1125 378.17188 24.8Q378.04688 24.4875 377.73438 24.3Q377.42188 24.096874 377.0 24.096874Q376.32812 24.096874 375.82812 24.534374Q375.34375 24.95625 375.34375 26.14375L375.34375 29.55L374.29688 29.55Z" fill-rule="nonzero"/></svg>