<?xml version="1.0" encoding="UTF-8" standalone="no"?><!DOCTYPE svg PUBLIC "-//W3C//DTD SVG 1.1//EN" "http://www.w3.org/Graphics/SVG/1.1/DTD/svg11.dtd"><!-- Generated by graphviz version 2.40.1 (20161225.0304)
 --><!-- Title: %0 Pages: 1 --><svg xmlns="http://www.w3.org/2000/svg" xmlns:xlink="http://www.w3.org/1999/xlink" width="2384pt" height="893pt" viewBox="0.00 0.00 2384.00 892.80">
<g id="graph0" class="graph" transform="scale(1 1) rotate(0) translate(4 888.8)">
<title>%0</title>
<polygon fill="#ffffff" stroke="transparent" points="-4,4 -4,-888.8 2380,-888.8 2380,4 -4,4"/>
<g id="clust1" class="cluster">
<title>cluster_1</title>
<polygon fill="none" stroke="#000000" points="8,-8 8,-876.8 2368,-876.8 2368,-8 8,-8"/>
<text text-anchor="middle" x="1188" y="-860.2" font-family="Times,serif" font-size="14.00" fill="#000000">LogicalPlan</text>
</g>
<!-- 2 -->
<g id="node1" class="node">
<title>2</title>
<polygon fill="none" stroke="#000000" points="1466.537,-844 909.463,-844 909.463,-808 1466.537,-808 1466.537,-844"/>
<text text-anchor="middle" x="1188" y="-821.8" font-family="Times,serif" font-size="14.00" fill="#000000">Projection: MIN(an.name) AS cool_actor_pseudonym, MIN(t.title) AS series_named_after_char</text>
</g>
<!-- 3 -->
<g id="node2" class="node">
<title>3</title>
<polygon fill="none" stroke="#000000" points="1373.9066,-772 1002.0934,-772 1002.0934,-736 1373.9066,-736 1373.9066,-772"/>
<text text-anchor="middle" x="1188" y="-749.8" font-family="Times,serif" font-size="14.00" fill="#000000">Aggregate: groupBy=[[]], aggr=[[MIN(an.name), MIN(t.title)]]</text>
</g>
<!-- 2&#45;&gt;3 -->
<g id="edge1" class="edge">
<title>2-&gt;3</title>
<path fill="none" stroke="#000000" d="M1188,-797.5726C1188,-789.1084 1188,-780.0593 1188,-772.4133"/>
<polygon fill="#000000" stroke="#000000" points="1184.5001,-797.8313 1188,-807.8314 1191.5001,-797.8314 1184.5001,-797.8313"/>
</g>
<!-- 4 -->
<g id="node3" class="node">
<title>4</title>
<polygon fill="none" stroke="#000000" points="2360.0178,-700 15.9822,-700 15.9822,-664 2360.0178,-664 2360.0178,-700"/>
<text text-anchor="middle" x="1188" y="-677.8" font-family="Times,serif" font-size="14.00" fill="#000000">Filter: cn.country_code = Utf8(_[us]_) AND k.keyword = Utf8(_character-name-in-title_) AND an.person_id = n.id AND n.id = ci.person_id AND ci.movie_id = t.id AND t.id = mk.movie_id AND mk.keyword_id = k.id AND t.id = mc.movie_id AND mc.company_id = cn.id AND an.person_id = ci.person_id AND ci.movie_id = mc.movie_id AND ci.movie_id = mk.movie_id AND mc.movie_id = mk.movie_id</text>
</g>
<!-- 3&#45;&gt;4 -->
<g id="edge2" class="edge">
<title>3-&gt;4</title>
<path fill="none" stroke="#000000" d="M1188,-725.5726C1188,-717.1084 1188,-708.0593 1188,-700.4133"/>
<polygon fill="#000000" stroke="#000000" points="1184.5001,-725.8313 1188,-735.8314 1191.5001,-725.8314 1184.5001,-725.8313"/>
</g>
<!-- 5 -->
<g id="node4" class="node">
<title>5</title>
<polygon fill="none" stroke="#000000" points="1225.6123,-628 1150.3877,-628 1150.3877,-592 1225.6123,-592 1225.6123,-628"/>
<text text-anchor="middle" x="1188" y="-605.8" font-family="Times,serif" font-size="14.00" fill="#000000">CrossJoin:</text>
</g>
<!-- 4&#45;&gt;5 -->
<g id="edge3" class="edge">
<title>4-&gt;5</title>
<path fill="none" stroke="#000000" d="M1188,-653.5726C1188,-645.1084 1188,-636.0593 1188,-628.4133"/>
<polygon fill="#000000" stroke="#000000" points="1184.5001,-653.8313 1188,-663.8314 1191.5001,-653.8314 1184.5001,-653.8313"/>
</g>
<!-- 6 -->
<g id="node5" class="node">
<title>6</title>
<polygon fill="none" stroke="#000000" points="1166.6123,-556 1091.3877,-556 1091.3877,-520 1166.6123,-520 1166.6123,-556"/>
<text text-anchor="middle" x="1129" y="-533.8" font-family="Times,serif" font-size="14.00" fill="#000000">CrossJoin:</text>
</g>
<!-- 5&#45;&gt;6 -->
<g id="edge4" class="edge">
<title>5-&gt;6</title>
<path fill="none" stroke="#000000" d="M1166.7701,-584.0923C1159.2639,-574.9323 1150.9807,-564.8239 1144.0886,-556.4133"/>
<polygon fill="#000000" stroke="#000000" points="1164.0664,-586.3149 1173.1118,-591.8314 1169.4807,-581.8782 1164.0664,-586.3149"/>
</g>
<!-- 26 -->
<g id="node25" class="node">
<title>26</title>
<polygon fill="none" stroke="#000000" points="1303.4871,-556 1192.5129,-556 1192.5129,-520 1303.4871,-520 1303.4871,-556"/>
<text text-anchor="middle" x="1248" y="-533.8" font-family="Times,serif" font-size="14.00" fill="#000000">SubqueryAlias: t</text>
</g>
<!-- 5&#45;&gt;26 -->
<g id="edge24" class="edge">
<title>5-&gt;26</title>
<path fill="none" stroke="#000000" d="M1209.5898,-584.0923C1217.2231,-574.9323 1225.6468,-564.8239 1232.6556,-556.4133"/>
<polygon fill="#000000" stroke="#000000" points="1206.8536,-581.9085 1203.1405,-591.8314 1212.2312,-586.3898 1206.8536,-581.9085"/>
</g>
<!-- 7 -->
<g id="node6" class="node">
<title>7</title>
<polygon fill="none" stroke="#000000" points="1041.6123,-484 966.3877,-484 966.3877,-448 1041.6123,-448 1041.6123,-484"/>
<text text-anchor="middle" x="1004" y="-461.8" font-family="Times,serif" font-size="14.00" fill="#000000">CrossJoin:</text>
</g>
<!-- 6&#45;&gt;7 -->
<g id="edge5" class="edge">
<title>6-&gt;7</title>
<path fill="none" stroke="#000000" d="M1088.7165,-514.7967C1071.4867,-504.8724 1051.6675,-493.4565 1035.5327,-484.1628"/>
<polygon fill="#000000" stroke="#000000" points="1087.0449,-517.873 1097.4572,-519.8314 1090.5388,-511.8072 1087.0449,-517.873"/>
</g>
<!-- 24 -->
<g id="node23" class="node">
<title>24</title>
<polygon fill="none" stroke="#000000" points="1185.5961,-484 1072.4039,-484 1072.4039,-448 1185.5961,-448 1185.5961,-484"/>
<text text-anchor="middle" x="1129" y="-461.8" font-family="Times,serif" font-size="14.00" fill="#000000">SubqueryAlias: n</text>
</g>
<!-- 6&#45;&gt;24 -->
<g id="edge22" class="edge">
<title>6-&gt;24</title>
<path fill="none" stroke="#000000" d="M1129,-509.5726C1129,-501.1084 1129,-492.0593 1129,-484.4133"/>
<polygon fill="#000000" stroke="#000000" points="1125.5001,-509.8313 1129,-519.8314 1132.5001,-509.8314 1125.5001,-509.8313"/>
</g>
<!-- 8 -->
<g id="node7" class="node">
<title>8</title>
<polygon fill="none" stroke="#000000" points="898.6123,-412 823.3877,-412 823.3877,-376 898.6123,-376 898.6123,-412"/>
<text text-anchor="middle" x="861" y="-389.8" font-family="Times,serif" font-size="14.00" fill="#000000">CrossJoin:</text>
</g>
<!-- 7&#45;&gt;8 -->
<g id="edge6" class="edge">
<title>7-&gt;8</title>
<path fill="none" stroke="#000000" d="M958.7277,-443.2055C938.8297,-433.187 915.7856,-421.5843 897.0734,-412.1628"/>
<polygon fill="#000000" stroke="#000000" points="957.4093,-446.4603 967.9151,-447.8314 960.5573,-440.2081 957.4093,-446.4603"/>
</g>
<!-- 22 -->
<g id="node21" class="node">
<title>22</title>
<polygon fill="none" stroke="#000000" points="1066.487,-412 941.513,-412 941.513,-376 1066.487,-376 1066.487,-412"/>
<text text-anchor="middle" x="1004" y="-389.8" font-family="Times,serif" font-size="14.00" fill="#000000">SubqueryAlias: mk</text>
</g>
<!-- 7&#45;&gt;22 -->
<g id="edge20" class="edge">
<title>7-&gt;22</title>
<path fill="none" stroke="#000000" d="M1004,-437.5726C1004,-429.1084 1004,-420.0593 1004,-412.4133"/>
<polygon fill="#000000" stroke="#000000" points="1000.5001,-437.8313 1004,-447.8314 1007.5001,-437.8314 1000.5001,-437.8313"/>
</g>
<!-- 9 -->
<g id="node8" class="node">
<title>9</title>
<polygon fill="none" stroke="#000000" points="756.6123,-340 681.3877,-340 681.3877,-304 756.6123,-304 756.6123,-340"/>
<text text-anchor="middle" x="719" y="-317.8" font-family="Times,serif" font-size="14.00" fill="#000000">CrossJoin:</text>
</g>
<!-- 8&#45;&gt;9 -->
<g id="edge7" class="edge">
<title>8-&gt;9</title>
<path fill="none" stroke="#000000" d="M816.0443,-371.2055C796.2854,-361.187 773.4025,-349.5843 754.8211,-340.1628"/>
<polygon fill="#000000" stroke="#000000" points="814.6656,-374.4306 825.1674,-375.8314 817.8312,-368.1873 814.6656,-374.4306"/>
</g>
<!-- 20 -->
<g id="node19" class="node">
<title>20</title>
<polygon fill="none" stroke="#000000" points="922.701,-340 799.299,-340 799.299,-304 922.701,-304 922.701,-340"/>
<text text-anchor="middle" x="861" y="-317.8" font-family="Times,serif" font-size="14.00" fill="#000000">SubqueryAlias: mc</text>
</g>
<!-- 8&#45;&gt;20 -->
<g id="edge18" class="edge">
<title>8-&gt;20</title>
<path fill="none" stroke="#000000" d="M861,-365.5726C861,-357.1084 861,-348.0593 861,-340.4133"/>
<polygon fill="#000000" stroke="#000000" points="857.5001,-365.8313 861,-375.8314 864.5001,-365.8314 857.5001,-365.8313"/>
</g>
<!-- 10 -->
<g id="node9" class="node">
<title>10</title>
<polygon fill="none" stroke="#000000" points="628.6123,-268 553.3877,-268 553.3877,-232 628.6123,-232 628.6123,-268"/>
<text text-anchor="middle" x="591" y="-245.8" font-family="Times,serif" font-size="14.00" fill="#000000">CrossJoin:</text>
</g>
<!-- 9&#45;&gt;10 -->
<g id="edge8" class="edge">
<title>9-&gt;10</title>
<path fill="none" stroke="#000000" d="M677.7497,-298.7967C660.1064,-288.8724 639.8115,-277.4565 623.2895,-268.1628"/>
<polygon fill="#000000" stroke="#000000" points="676.2685,-301.9792 686.7002,-303.8314 679.7004,-295.8782 676.2685,-301.9792"/>
</g>
<!-- 18 -->
<g id="node17" class="node">
<title>18</title>
<polygon fill="none" stroke="#000000" points="775.5961,-268 662.4039,-268 662.4039,-232 775.5961,-232 775.5961,-268"/>
<text text-anchor="middle" x="719" y="-245.8" font-family="Times,serif" font-size="14.00" fill="#000000">SubqueryAlias: k</text>
</g>
<!-- 9&#45;&gt;18 -->
<g id="edge16" class="edge">
<title>9-&gt;18</title>
<path fill="none" stroke="#000000" d="M719,-293.5726C719,-285.1084 719,-276.0593 719,-268.4133"/>
<polygon fill="#000000" stroke="#000000" points="715.5001,-293.8313 719,-303.8314 722.5001,-293.8314 715.5001,-293.8313"/>
</g>
<!-- 11 -->
<g id="node10" class="node">
<title>11</title>
<polygon fill="none" stroke="#000000" points="489.6123,-196 414.3877,-196 414.3877,-160 489.6123,-160 489.6123,-196"/>
<text text-anchor="middle" x="452" y="-173.8" font-family="Times,serif" font-size="14.00" fill="#000000">CrossJoin:</text>
</g>
<!-- 10&#45;&gt;11 -->
<g id="edge9" class="edge">
<title>10-&gt;11</title>
<path fill="none" stroke="#000000" d="M546.994,-227.2055C527.6526,-217.187 505.2531,-205.5843 487.0643,-196.1628"/>
<polygon fill="#000000" stroke="#000000" points="545.4351,-230.3397 555.9244,-231.8314 548.6548,-224.124 545.4351,-230.3397"/>
</g>
<!-- 16 -->
<g id="node15" class="node">
<title>16</title>
<polygon fill="none" stroke="#000000" points="650.8102,-196 531.1898,-196 531.1898,-160 650.8102,-160 650.8102,-196"/>
<text text-anchor="middle" x="591" y="-173.8" font-family="Times,serif" font-size="14.00" fill="#000000">SubqueryAlias: cn</text>
</g>
<!-- 10&#45;&gt;16 -->
<g id="edge14" class="edge">
<title>10-&gt;16</title>
<path fill="none" stroke="#000000" d="M591,-221.5726C591,-213.1084 591,-204.0593 591,-196.4133"/>
<polygon fill="#000000" stroke="#000000" points="587.5001,-221.8313 591,-231.8314 594.5001,-221.8314 587.5001,-221.8313"/>
</g>
<!-- 12 -->
<g id="node11" class="node">
<title>12</title>
<polygon fill="none" stroke="#000000" points="370.8102,-124 251.1898,-124 251.1898,-88 370.8102,-88 370.8102,-124"/>
<text text-anchor="middle" x="311" y="-101.8" font-family="Times,serif" font-size="14.00" fill="#000000">SubqueryAlias: an</text>
</g>
<!-- 11&#45;&gt;12 -->
<g id="edge10" class="edge">
<title>11-&gt;12</title>
<path fill="none" stroke="#000000" d="M407.3609,-155.2055C387.7411,-145.187 365.0194,-133.5843 346.5689,-124.1628"/>
<polygon fill="#000000" stroke="#000000" points="405.9219,-158.4007 416.4197,-159.8314 409.1054,-152.1664 405.9219,-158.4007"/>
</g>
<!-- 14 -->
<g id="node13" class="node">
<title>14</title>
<polygon fill="none" stroke="#000000" points="510.201,-124 393.799,-124 393.799,-88 510.201,-88 510.201,-124"/>
<text text-anchor="middle" x="452" y="-101.8" font-family="Times,serif" font-size="14.00" fill="#000000">SubqueryAlias: ci</text>
</g>
<!-- 11&#45;&gt;14 -->
<g id="edge12" class="edge">
<title>11-&gt;14</title>
<path fill="none" stroke="#000000" d="M452,-149.5726C452,-141.1084 452,-132.0593 452,-124.4133"/>
<polygon fill="#000000" stroke="#000000" points="448.5001,-149.8313 452,-159.8314 455.5001,-149.8314 448.5001,-149.8313"/>
</g>
<!-- 13 -->
<g id="node12" class="node">
<title>13</title>
<polygon fill="none" stroke="#000000" points="375.724,-52 236.276,-52 236.276,-16 375.724,-16 375.724,-52"/>
<text text-anchor="middle" x="306" y="-29.8" font-family="Times,serif" font-size="14.00" fill="#000000">TableScan: aka_name</text>
</g>
<!-- 12&#45;&gt;13 -->
<g id="edge11" class="edge">
<title>12-&gt;13</title>
<path fill="none" stroke="#000000" d="M309.0455,-77.8545C308.4521,-69.3097 307.8156,-60.1442 307.2787,-52.4133"/>
<polygon fill="#000000" stroke="#000000" points="305.5538,-78.0979 309.7383,-87.8314 312.537,-77.6129 305.5538,-78.0979"/>
</g>
<!-- 15 -->
<g id="node14" class="node">
<title>15</title>
<polygon fill="none" stroke="#000000" points="527.7906,-52 394.2094,-52 394.2094,-16 527.7906,-16 527.7906,-52"/>
<text text-anchor="middle" x="461" y="-29.8" font-family="Times,serif" font-size="14.00" fill="#000000">TableScan: cast_info</text>
</g>
<!-- 14&#45;&gt;15 -->
<g id="edge13" class="edge">
<title>14-&gt;15</title>
<path fill="none" stroke="#000000" d="M455.5182,-77.8545C456.5863,-69.3097 457.732,-60.1442 458.6983,-52.4133"/>
<polygon fill="#000000" stroke="#000000" points="452.0385,-77.4744 454.2711,-87.8314 458.9845,-78.3427 452.0385,-77.4744"/>
</g>
<!-- 17 -->
<g id="node16" class="node">
<title>17</title>
<polygon fill="none" stroke="#000000" points="699.6144,-124 528.3856,-124 528.3856,-88 699.6144,-88 699.6144,-124"/>
<text text-anchor="middle" x="614" y="-101.8" font-family="Times,serif" font-size="14.00" fill="#000000">TableScan: company_name</text>
</g>
<!-- 16&#45;&gt;17 -->
<g id="edge15" class="edge">
<title>16-&gt;17</title>
<path fill="none" stroke="#000000" d="M599.901,-150.136C602.6561,-141.5113 605.6212,-132.2292 608.118,-124.4133"/>
<polygon fill="#000000" stroke="#000000" points="596.5129,-149.2405 596.8039,-159.8314 603.1809,-151.3706 596.5129,-149.2405"/>
</g>
<!-- 19 -->
<g id="node18" class="node">
<title>19</title>
<polygon fill="none" stroke="#000000" points="800.9574,-196 669.0426,-196 669.0426,-160 800.9574,-160 800.9574,-196"/>
<text text-anchor="middle" x="735" y="-173.8" font-family="Times,serif" font-size="14.00" fill="#000000">TableScan: keyword</text>
</g>
<!-- 18&#45;&gt;19 -->
<g id="edge17" class="edge">
<title>18-&gt;19</title>
<path fill="none" stroke="#000000" d="M725.2546,-221.8545C727.1534,-213.3097 729.1902,-204.1442 730.9082,-196.4133"/>
<polygon fill="#000000" stroke="#000000" points="721.7902,-221.3102 723.0375,-231.8314 728.6235,-222.8288 721.7902,-221.3102"/>
</g>
<!-- 21 -->
<g id="node20" class="node">
<title>21</title>
<polygon fill="none" stroke="#000000" points="978.3405,-268 793.6595,-268 793.6595,-232 978.3405,-232 978.3405,-268"/>
<text text-anchor="middle" x="886" y="-245.8" font-family="Times,serif" font-size="14.00" fill="#000000">TableScan: movie_companies</text>
</g>
<!-- 20&#45;&gt;21 -->
<g id="edge19" class="edge">
<title>20-&gt;21</title>
<path fill="none" stroke="#000000" d="M870.675,-294.136C873.6697,-285.5113 876.8926,-276.2292 879.6065,-268.4133"/>
<polygon fill="#000000" stroke="#000000" points="867.2824,-293.2366 867.3086,-303.8314 873.8951,-295.5327 867.2824,-293.2366"/>
</g>
<!-- 23 -->
<g id="node22" class="node">
<title>23</title>
<polygon fill="none" stroke="#000000" points="1114.953,-340 941.047,-340 941.047,-304 1114.953,-304 1114.953,-340"/>
<text text-anchor="middle" x="1028" y="-317.8" font-family="Times,serif" font-size="14.00" fill="#000000">TableScan: movie_keyword</text>
</g>
<!-- 22&#45;&gt;23 -->
<g id="edge21" class="edge">
<title>22-&gt;23</title>
<path fill="none" stroke="#000000" d="M1013.288,-366.136C1016.1629,-357.5113 1019.2569,-348.2292 1021.8622,-340.4133"/>
<polygon fill="#000000" stroke="#000000" points="1009.8982,-365.2377 1010.0562,-375.8314 1016.539,-367.4513 1009.8982,-365.2377"/>
</g>
<!-- 25 -->
<g id="node24" class="node">
<title>25</title>
<polygon fill="none" stroke="#000000" points="1197.2948,-412 1084.7052,-412 1084.7052,-376 1197.2948,-376 1197.2948,-412"/>
<text text-anchor="middle" x="1141" y="-389.8" font-family="Times,serif" font-size="14.00" fill="#000000">TableScan: name</text>
</g>
<!-- 24&#45;&gt;25 -->
<g id="edge23" class="edge">
<title>24-&gt;25</title>
<path fill="none" stroke="#000000" d="M1133.6909,-437.8545C1135.1151,-429.3097 1136.6426,-420.1442 1137.9311,-412.4133"/>
<polygon fill="#000000" stroke="#000000" points="1130.2198,-437.392 1132.0281,-447.8314 1137.1246,-438.5428 1130.2198,-437.392"/>
</g>
<!-- 27 -->
<g id="node26" class="node">
<title>27</title>
<polygon fill="none" stroke="#000000" points="1308.2521,-484 1203.7479,-484 1203.7479,-448 1308.2521,-448 1308.2521,-484"/>
<text text-anchor="middle" x="1256" y="-461.8" font-family="Times,serif" font-size="14.00" fill="#000000">TableScan: title</text>
</g>
<!-- 26&#45;&gt;27 -->
<g id="edge25" class="edge">
<title>26-&gt;27</title>
<path fill="none" stroke="#000000" d="M1251.1273,-509.8545C1252.0767,-501.3097 1253.0951,-492.1442 1253.9541,-484.4133"/>
<polygon fill="#000000" stroke="#000000" points="1247.6445,-509.506 1250.0187,-519.8314 1254.6017,-510.2791 1247.6445,-509.506"/>
</g>
</g>
</svg>