<?xml version="1.0" encoding="UTF-8" standalone="no"?><!DOCTYPE svg PUBLIC "-//W3C//DTD SVG 1.1//EN" "http://www.w3.org/Graphics/SVG/1.1/DTD/svg11.dtd"><!-- Generated by graphviz version 2.40.1 (20161225.0304)
 --><!-- Title: %0 Pages: 1 --><svg xmlns="http://www.w3.org/2000/svg" xmlns:xlink="http://www.w3.org/1999/xlink" width="1087pt" height="677pt" viewBox="0.00 0.00 1087.00 676.80">
<g id="graph0" class="graph" transform="scale(1 1) rotate(0) translate(4 672.8)">
<title>%0</title>
<polygon fill="#ffffff" stroke="transparent" points="-4,4 -4,-672.8 1083,-672.8 1083,4 -4,4"/>
<g id="clust1" class="cluster">
<title>cluster_1</title>
<polygon fill="none" stroke="#000000" points="8,-8 8,-660.8 1071,-660.8 1071,-8 8,-8"/>
<text text-anchor="middle" x="539.5" y="-644.2" font-family="Times,serif" font-size="14.00" fill="#000000">LogicalPlan</text>
</g>
<!-- 2 -->
<g id="node1" class="node">
<title>2</title>
<polygon fill="none" stroke="#000000" points="669.537,-628 112.463,-628 112.463,-592 669.537,-592 669.537,-628"/>
<text text-anchor="middle" x="391" y="-605.8" font-family="Times,serif" font-size="14.00" fill="#000000">Projection: MIN(an.name) AS cool_actor_pseudonym, MIN(t.title) AS series_named_after_char</text>
</g>
<!-- 3 -->
<g id="node2" class="node">
<title>3</title>
<polygon fill="none" stroke="#000000" points="576.9066,-556 205.0934,-556 205.0934,-520 576.9066,-520 576.9066,-556"/>
<text text-anchor="middle" x="391" y="-533.8" font-family="Times,serif" font-size="14.00" fill="#000000">Aggregate: groupBy=[[]], aggr=[[MIN(an.name), MIN(t.title)]]</text>
</g>
<!-- 2&#45;&gt;3 -->
<g id="edge1" class="edge">
<title>2-&gt;3</title>
<path fill="none" stroke="#000000" d="M391,-581.5726C391,-573.1084 391,-564.0593 391,-556.4133"/>
<polygon fill="#000000" stroke="#000000" points="387.5001,-581.8313 391,-591.8314 394.5001,-581.8314 387.5001,-581.8313"/>
</g>
<!-- 4 -->
<g id="node3" class="node">
<title>4</title>
<polygon fill="none" stroke="#000000" points="564.998,-484 217.002,-484 217.002,-448 564.998,-448 564.998,-484"/>
<text text-anchor="middle" x="391" y="-461.8" font-family="Times,serif" font-size="14.00" fill="#000000">Inner Join: n.id = ci.person_id, an.person_id = ci.person_id</text>
</g>
<!-- 3&#45;&gt;4 -->
<g id="edge2" class="edge">
<title>3-&gt;4</title>
<path fill="none" stroke="#000000" d="M391,-509.5726C391,-501.1084 391,-492.0593 391,-484.4133"/>
<polygon fill="#000000" stroke="#000000" points="387.5001,-509.8313 391,-519.8314 394.5001,-509.8314 387.5001,-509.8313"/>
</g>
<!-- 5 -->
<g id="node4" class="node">
<title>5</title>
<polygon fill="none" stroke="#000000" points="291.9718,-412 104.0282,-412 104.0282,-376 291.9718,-376 291.9718,-412"/>
<text text-anchor="middle" x="198" y="-389.8" font-family="Times,serif" font-size="14.00" fill="#000000">Inner Join: an.person_id = n.id</text>
</g>
<!-- 4&#45;&gt;5 -->
<g id="edge3" class="edge">
<title>4-&gt;5</title>
<path fill="none" stroke="#000000" d="M332.7603,-444.2733C305.1556,-433.9752 272.5669,-421.8177 246.3518,-412.038"/>
<polygon fill="#000000" stroke="#000000" points="331.7053,-447.6153 342.298,-447.8314 334.152,-441.0568 331.7053,-447.6153"/>
</g>
<!-- 10 -->
<g id="node9" class="node">
<title>10</title>
<polygon fill="none" stroke="#000000" points="827.97,-412 310.03,-412 310.03,-376 827.97,-376 827.97,-412"/>
<text text-anchor="middle" x="569" y="-389.8" font-family="Times,serif" font-size="14.00" fill="#000000">Inner Join: t.id = mc.movie_id, mk.movie_id = mc.movie_id, ci.movie_id = mc.movie_id</text>
</g>
<!-- 4&#45;&gt;10 -->
<g id="edge8" class="edge">
<title>4-&gt;10</title>
<path fill="none" stroke="#000000" d="M445.3814,-444.003C470.6971,-433.763 500.4397,-421.7323 524.4061,-412.038"/>
<polygon fill="#000000" stroke="#000000" points="443.8748,-440.8369 435.9169,-447.8314 446.4997,-447.3261 443.8748,-440.8369"/>
</g>
<!-- 6 -->
<g id="node5" class="node">
<title>6</title>
<polygon fill="none" stroke="#000000" points="147.8102,-340 28.1898,-340 28.1898,-304 147.8102,-304 147.8102,-340"/>
<text text-anchor="middle" x="88" y="-317.8" font-family="Times,serif" font-size="14.00" fill="#000000">SubqueryAlias: an</text>
</g>
<!-- 5&#45;&gt;6 -->
<g id="edge4" class="edge">
<title>5-&gt;6</title>
<path fill="none" stroke="#000000" d="M161.7136,-370.2489C146.7494,-360.4541 129.6868,-349.2859 115.7488,-340.1628"/>
<polygon fill="#000000" stroke="#000000" points="159.9585,-373.2832 170.2424,-375.8314 163.7921,-367.4263 159.9585,-373.2832"/>
</g>
<!-- 8 -->
<g id="node7" class="node">
<title>8</title>
<polygon fill="none" stroke="#000000" points="282.5961,-340 169.4039,-340 169.4039,-304 282.5961,-304 282.5961,-340"/>
<text text-anchor="middle" x="226" y="-317.8" font-family="Times,serif" font-size="14.00" fill="#000000">SubqueryAlias: n</text>
</g>
<!-- 5&#45;&gt;8 -->
<g id="edge6" class="edge">
<title>5-&gt;8</title>
<path fill="none" stroke="#000000" d="M208.7267,-366.417C212.1115,-357.7132 215.7667,-348.3141 218.8393,-340.4133"/>
<polygon fill="#000000" stroke="#000000" points="205.4281,-365.2427 205.0656,-375.8314 211.9521,-367.7799 205.4281,-365.2427"/>
</g>
<!-- 7 -->
<g id="node6" class="node">
<title>7</title>
<polygon fill="none" stroke="#000000" points="155.724,-268 16.276,-268 16.276,-232 155.724,-232 155.724,-268"/>
<text text-anchor="middle" x="86" y="-245.8" font-family="Times,serif" font-size="14.00" fill="#000000">TableScan: aka_name</text>
</g>
<!-- 6&#45;&gt;7 -->
<g id="edge5" class="edge">
<title>6-&gt;7</title>
<path fill="none" stroke="#000000" d="M87.2103,-293.5726C86.9752,-285.1084 86.7239,-276.0593 86.5115,-268.4133"/>
<polygon fill="#000000" stroke="#000000" points="83.7189,-293.9324 87.4953,-303.8314 90.7162,-293.738 83.7189,-293.9324"/>
</g>
<!-- 9 -->
<g id="node8" class="node">
<title>9</title>
<polygon fill="none" stroke="#000000" points="286.2948,-268 173.7052,-268 173.7052,-232 286.2948,-232 286.2948,-268"/>
<text text-anchor="middle" x="230" y="-245.8" font-family="Times,serif" font-size="14.00" fill="#000000">TableScan: name</text>
</g>
<!-- 8&#45;&gt;9 -->
<g id="edge7" class="edge">
<title>8-&gt;9</title>
<path fill="none" stroke="#000000" d="M227.5793,-293.5726C228.0495,-285.1084 228.5523,-276.0593 228.977,-268.4133"/>
<polygon fill="#000000" stroke="#000000" points="224.0695,-293.6526 227.0094,-303.8314 231.0588,-294.0409 224.0695,-293.6526"/>
</g>
<!-- 11 -->
<g id="node10" class="node">
<title>11</title>
<polygon fill="none" stroke="#000000" points="688.8776,-340 339.1224,-340 339.1224,-304 688.8776,-304 688.8776,-340"/>
<text text-anchor="middle" x="514" y="-317.8" font-family="Times,serif" font-size="14.00" fill="#000000">Inner Join: ci.movie_id = mk.movie_id, t.id = mk.movie_id</text>
</g>
<!-- 10&#45;&gt;11 -->
<g id="edge9" class="edge">
<title>10-&gt;11</title>
<path fill="none" stroke="#000000" d="M548.9971,-367.8144C542.0563,-358.7282 534.4256,-348.7389 528.0657,-340.4133"/>
<polygon fill="#000000" stroke="#000000" points="546.2694,-370.0093 555.1212,-375.8314 551.8321,-365.76 546.2694,-370.0093"/>
</g>
<!-- 23 -->
<g id="node22" class="node">
<title>23</title>
<polygon fill="none" stroke="#000000" points="919.077,-340 706.923,-340 706.923,-304 919.077,-304 919.077,-340"/>
<text text-anchor="middle" x="813" y="-317.8" font-family="Times,serif" font-size="14.00" fill="#000000">Inner Join: mc.company_id = cn.id</text>
</g>
<!-- 10&#45;&gt;23 -->
<g id="edge21" class="edge">
<title>10-&gt;23</title>
<path fill="none" stroke="#000000" d="M640.0388,-373.0377C675.4222,-362.5967 717.7777,-350.0984 751.7182,-340.0831"/>
<polygon fill="#000000" stroke="#000000" points="638.8571,-369.7371 630.2566,-375.9243 640.8383,-376.451 638.8571,-369.7371"/>
</g>
<!-- 12 -->
<g id="node11" class="node">
<title>12</title>
<polygon fill="none" stroke="#000000" points="483.9295,-268 304.0705,-268 304.0705,-232 483.9295,-232 483.9295,-268"/>
<text text-anchor="middle" x="394" y="-245.8" font-family="Times,serif" font-size="14.00" fill="#000000">Inner Join: ci.movie_id = t.id</text>
</g>
<!-- 11&#45;&gt;12 -->
<g id="edge10" class="edge">
<title>11-&gt;12</title>
<path fill="none" stroke="#000000" d="M474.8719,-298.5232C458.4385,-288.6631 439.6187,-277.3712 424.2714,-268.1628"/>
<polygon fill="#000000" stroke="#000000" points="473.3432,-301.6876 483.7189,-303.8314 476.9447,-295.6851 473.3432,-301.6876"/>
</g>
<!-- 17 -->
<g id="node16" class="node">
<title>17</title>
<polygon fill="none" stroke="#000000" points="706.31,-268 501.69,-268 501.69,-232 706.31,-232 706.31,-268"/>
<text text-anchor="middle" x="604" y="-245.8" font-family="Times,serif" font-size="14.00" fill="#000000">Inner Join: mk.keyword_id = k.id</text>
</g>
<!-- 11&#45;&gt;17 -->
<g id="edge15" class="edge">
<title>11-&gt;17</title>
<path fill="none" stroke="#000000" d="M544.7226,-297.4219C556.7131,-287.8295 570.2123,-277.0301 581.2965,-268.1628"/>
<polygon fill="#000000" stroke="#000000" points="542.3331,-294.8513 536.7108,-303.8314 546.706,-300.3174 542.3331,-294.8513"/>
</g>
<!-- 13 -->
<g id="node12" class="node">
<title>13</title>
<polygon fill="none" stroke="#000000" points="132.201,-196 15.799,-196 15.799,-160 132.201,-160 132.201,-196"/>
<text text-anchor="middle" x="74" y="-173.8" font-family="Times,serif" font-size="14.00" fill="#000000">SubqueryAlias: ci</text>
</g>
<!-- 12&#45;&gt;13 -->
<g id="edge11" class="edge">
<title>12-&gt;13</title>
<path fill="none" stroke="#000000" d="M294.7639,-229.8749C248.2592,-220.1522 192.1676,-208.0077 142,-196 138.9121,-195.2609 135.7499,-194.4863 132.5606,-193.6909"/>
<polygon fill="#000000" stroke="#000000" points="294.3361,-233.3608 304.8399,-231.9749 295.7644,-226.5081 294.3361,-233.3608"/>
</g>
<!-- 15 -->
<g id="node14" class="node">
<title>15</title>
<polygon fill="none" stroke="#000000" points="261.4871,-196 150.5129,-196 150.5129,-160 261.4871,-160 261.4871,-196"/>
<text text-anchor="middle" x="206" y="-173.8" font-family="Times,serif" font-size="14.00" fill="#000000">SubqueryAlias: t</text>
</g>
<!-- 12&#45;&gt;15 -->
<g id="edge13" class="edge">
<title>12-&gt;15</title>
<path fill="none" stroke="#000000" d="M336.9166,-228.1383C310.1025,-217.869 278.5236,-205.775 253.0992,-196.038"/>
<polygon fill="#000000" stroke="#000000" points="335.9693,-231.5233 346.5597,-231.8314 338.4729,-224.9863 335.9693,-231.5233"/>
</g>
<!-- 14 -->
<g id="node13" class="node">
<title>14</title>
<polygon fill="none" stroke="#000000" points="149.7906,-124 16.2094,-124 16.2094,-88 149.7906,-88 149.7906,-124"/>
<text text-anchor="middle" x="83" y="-101.8" font-family="Times,serif" font-size="14.00" fill="#000000">TableScan: cast_info</text>
</g>
<!-- 13&#45;&gt;14 -->
<g id="edge12" class="edge">
<title>13-&gt;14</title>
<path fill="none" stroke="#000000" d="M77.5182,-149.8545C78.5863,-141.3097 79.732,-132.1442 80.6983,-124.4133"/>
<polygon fill="#000000" stroke="#000000" points="74.0385,-149.4744 76.2711,-159.8314 80.9845,-150.3427 74.0385,-149.4744"/>
</g>
<!-- 16 -->
<g id="node15" class="node">
<title>16</title>
<polygon fill="none" stroke="#000000" points="272.2521,-124 167.7479,-124 167.7479,-88 272.2521,-88 272.2521,-124"/>
<text text-anchor="middle" x="220" y="-101.8" font-family="Times,serif" font-size="14.00" fill="#000000">TableScan: title</text>
</g>
<!-- 15&#45;&gt;16 -->
<g id="edge14" class="edge">
<title>15-&gt;16</title>
<path fill="none" stroke="#000000" d="M211.4727,-149.8545C213.1342,-141.3097 214.9164,-132.1442 216.4196,-124.4133"/>
<polygon fill="#000000" stroke="#000000" points="208.0059,-149.3471 209.5328,-159.8314 214.8772,-150.6833 208.0059,-149.3471"/>
</g>
<!-- 18 -->
<g id="node17" class="node">
<title>18</title>
<polygon fill="none" stroke="#000000" points="403.487,-196 278.513,-196 278.513,-160 403.487,-160 403.487,-196"/>
<text text-anchor="middle" x="341" y="-173.8" font-family="Times,serif" font-size="14.00" fill="#000000">SubqueryAlias: mk</text>
</g>
<!-- 17&#45;&gt;18 -->
<g id="edge16" class="edge">
<title>17-&gt;18</title>
<path fill="none" stroke="#000000" d="M528.1091,-229.2238C488.568,-218.3989 440.8041,-205.3228 403.4322,-195.0917"/>
<polygon fill="#000000" stroke="#000000" points="527.4042,-232.6595 537.9735,-231.9243 529.2526,-225.908 527.4042,-232.6595"/>
</g>
<!-- 20 -->
<g id="node19" class="node">
<title>20</title>
<polygon fill="none" stroke="#000000" points="534.5961,-196 421.4039,-196 421.4039,-160 534.5961,-160 534.5961,-196"/>
<text text-anchor="middle" x="478" y="-173.8" font-family="Times,serif" font-size="14.00" fill="#000000">SubqueryAlias: k</text>
</g>
<!-- 17&#45;&gt;20 -->
<g id="edge18" class="edge">
<title>17-&gt;20</title>
<path fill="none" stroke="#000000" d="M563.3942,-226.7967C546.0266,-216.8724 526.0488,-205.4565 509.7849,-196.1628"/>
<polygon fill="#000000" stroke="#000000" points="561.7859,-229.9088 572.2049,-231.8314 565.2589,-223.8311 561.7859,-229.9088"/>
</g>
<!-- 19 -->
<g id="node18" class="node">
<title>19</title>
<polygon fill="none" stroke="#000000" points="463.953,-124 290.047,-124 290.047,-88 463.953,-88 463.953,-124"/>
<text text-anchor="middle" x="377" y="-101.8" font-family="Times,serif" font-size="14.00" fill="#000000">TableScan: movie_keyword</text>
</g>
<!-- 18&#45;&gt;19 -->
<g id="edge17" class="edge">
<title>18-&gt;19</title>
<path fill="none" stroke="#000000" d="M354.6513,-150.6975C359.0422,-141.9155 363.8005,-132.3991 367.7934,-124.4133"/>
<polygon fill="#000000" stroke="#000000" points="351.426,-149.3218 350.0843,-159.8314 357.687,-152.4523 351.426,-149.3218"/>
</g>
<!-- 21 -->
<g id="node20" class="node">
<title>21</title>
<polygon fill="none" stroke="#000000" points="828.8115,-124 481.1885,-124 481.1885,-88 828.8115,-88 828.8115,-124"/>
<text text-anchor="middle" x="655" y="-101.8" font-family="Times,serif" font-size="14.00" fill="#000000">Filter: keyword.keyword = Utf8(_character-name-in-title_)</text>
</g>
<!-- 20&#45;&gt;21 -->
<g id="edge19" class="edge">
<title>20-&gt;21</title>
<path fill="none" stroke="#000000" d="M532.0759,-156.003C557.2493,-145.763 586.8248,-133.7323 610.6566,-124.038"/>
<polygon fill="#000000" stroke="#000000" points="530.6087,-152.8213 522.6646,-159.8314 533.2463,-159.3054 530.6087,-152.8213"/>
</g>
<!-- 22 -->
<g id="node21" class="node">
<title>22</title>
<polygon fill="none" stroke="#000000" points="720.9574,-52 589.0426,-52 589.0426,-16 720.9574,-16 720.9574,-52"/>
<text text-anchor="middle" x="655" y="-29.8" font-family="Times,serif" font-size="14.00" fill="#000000">TableScan: keyword</text>
</g>
<!-- 21&#45;&gt;22 -->
<g id="edge20" class="edge">
<title>21-&gt;22</title>
<path fill="none" stroke="#000000" d="M655,-77.5726C655,-69.1084 655,-60.0593 655,-52.4133"/>
<polygon fill="#000000" stroke="#000000" points="651.5001,-77.8313 655,-87.8314 658.5001,-77.8314 651.5001,-77.8313"/>
</g>
<!-- 24 -->
<g id="node23" class="node">
<title>24</title>
<polygon fill="none" stroke="#000000" points="847.701,-268 724.299,-268 724.299,-232 847.701,-232 847.701,-268"/>
<text text-anchor="middle" x="786" y="-245.8" font-family="Times,serif" font-size="14.00" fill="#000000">SubqueryAlias: mc</text>
</g>
<!-- 23&#45;&gt;24 -->
<g id="edge22" class="edge">
<title>23-&gt;24</title>
<path fill="none" stroke="#000000" d="M802.6564,-294.417C799.3925,-285.7132 795.8678,-276.3141 792.905,-268.4133"/>
<polygon fill="#000000" stroke="#000000" points="799.3983,-295.697 806.1868,-303.8314 805.9526,-293.2391 799.3983,-295.697"/>
</g>
<!-- 26 -->
<g id="node25" class="node">
<title>26</title>
<polygon fill="none" stroke="#000000" points="985.8102,-268 866.1898,-268 866.1898,-232 985.8102,-232 985.8102,-268"/>
<text text-anchor="middle" x="926" y="-245.8" font-family="Times,serif" font-size="14.00" fill="#000000">SubqueryAlias: cn</text>
</g>
<!-- 23&#45;&gt;26 -->
<g id="edge24" class="edge">
<title>23-&gt;26</title>
<path fill="none" stroke="#000000" d="M850.276,-298.2489C865.6484,-288.4541 883.1762,-277.2859 897.4945,-268.1628"/>
<polygon fill="#000000" stroke="#000000" points="848.0675,-295.506 841.5147,-303.8314 851.829,-301.4095 848.0675,-295.506"/>
</g>
<!-- 25 -->
<g id="node24" class="node">
<title>25</title>
<polygon fill="none" stroke="#000000" points="737.3405,-196 552.6595,-196 552.6595,-160 737.3405,-160 737.3405,-196"/>
<text text-anchor="middle" x="645" y="-173.8" font-family="Times,serif" font-size="14.00" fill="#000000">TableScan: movie_companies</text>
</g>
<!-- 24&#45;&gt;25 -->
<g id="edge23" class="edge">
<title>24-&gt;25</title>
<path fill="none" stroke="#000000" d="M741.3609,-227.2055C721.7411,-217.187 699.0194,-205.5843 680.5689,-196.1628"/>
<polygon fill="#000000" stroke="#000000" points="739.9219,-230.4007 750.4197,-231.8314 743.1054,-224.1664 739.9219,-230.4007"/>
</g>
<!-- 27 -->
<g id="node26" class="node">
<title>27</title>
<polygon fill="none" stroke="#000000" points="1062.6944,-196 755.3056,-196 755.3056,-160 1062.6944,-160 1062.6944,-196"/>
<text text-anchor="middle" x="909" y="-173.8" font-family="Times,serif" font-size="14.00" fill="#000000">Filter: company_name.country_code = Utf8(_[us]_)</text>
</g>
<!-- 26&#45;&gt;27 -->
<g id="edge25" class="edge">
<title>26-&gt;27</title>
<path fill="none" stroke="#000000" d="M919.3545,-221.8545C917.337,-213.3097 915.1729,-204.1442 913.3476,-196.4133"/>
<polygon fill="#000000" stroke="#000000" points="916.0058,-222.9033 921.7102,-231.8314 922.8185,-221.2947 916.0058,-222.9033"/>
</g>
<!-- 28 -->
<g id="node27" class="node">
<title>28</title>
<polygon fill="none" stroke="#000000" points="1017.6144,-124 846.3856,-124 846.3856,-88 1017.6144,-88 1017.6144,-124"/>
<text text-anchor="middle" x="932" y="-101.8" font-family="Times,serif" font-size="14.00" fill="#000000">TableScan: company_name</text>
</g>
<!-- 27&#45;&gt;28 -->
<g id="edge26" class="edge">
<title>27-&gt;28</title>
<path fill="none" stroke="#000000" d="M917.901,-150.136C920.6561,-141.5113 923.6212,-132.2292 926.118,-124.4133"/>
<polygon fill="#000000" stroke="#000000" points="914.5129,-149.2405 914.8039,-159.8314 921.1809,-151.3706 914.5129,-149.2405"/>
</g>
</g>
</svg>